<svg width="60" height="61" viewBox="0 0 60 61" fill="none" xmlns="http://www.w3.org/2000/svg">
<g clip-path="url(#clip0_2188_4366)">
<path d="M25.0367 48.1319C21.7608 47.3575 18.5504 49.8909 15.2618 49.2158C14.4685 49.0517 13.6882 48.7087 12.8814 48.6166C12.0746 48.5246 11.1803 48.7866 10.7766 49.5599C10.2384 50.5891 10.8825 52.0659 11.8573 52.6275C12.8321 53.1891 13.9795 53.0499 15.0049 52.7409C16.0304 52.432 17.0231 51.95 18.0928 51.8629C19.1909 51.7741 20.2987 52.1074 21.4038 52.1436C22.8195 52.1863 24.1949 51.7452 25.3524 50.8774C25.7362 50.5871 26.1068 50.2305 26.2661 49.7361C26.4255 49.2417 26.3036 48.5838 25.8885 48.31C25.6796 48.1915 25.4502 48.1338 25.2214 48.1422C24.5625 48.1185 23.9098 48.2226 23.2915 48.4502" fill="#E1EDF3"/>
<path d="M17.1952 27.9977H16.968C16.9494 27.9981 16.9317 28.0056 16.9185 28.0187C16.9054 28.0317 16.8978 28.0494 16.8975 28.0679C16.8978 28.0863 16.9054 28.104 16.9185 28.117C16.9317 28.1301 16.9494 28.1376 16.968 28.138H17.1952C17.214 28.138 17.2319 28.1306 17.2451 28.1174C17.2584 28.1043 17.2658 28.0865 17.2658 28.0679C17.2658 28.0493 17.2584 28.0314 17.2451 28.0183C17.2319 28.0051 17.214 27.9977 17.1952 27.9977Z" fill="white"/>
<path d="M16.3089 48.295C16.3536 48.3541 16.3937 48.4164 16.4289 48.4816C17.8642 51.1993 18.7435 51.7069 19.459 51.1866C19.7046 51.0057 19.8302 50.5612 20.0235 50.2681C20.2973 49.86 20.7094 49.7507 21.226 49.9512C21.8709 50.2008 22.6697 50.9216 23.2724 51.0478C23.875 51.174 24.2504 50.4869 23.8242 48.7957C23.508 47.6488 23.0585 46.5424 22.4849 45.4988C22.0022 44.6171 21.4525 43.7733 20.8407 42.9746C19.7116 41.4713 18.5953 40.2204 17.438 38.3133C16.3795 36.5688 15.3492 34.3783 14.2922 32.739C13.6669 31.77 13.0516 31.0268 12.5224 30.6075C12.3417 30.4672 12.1667 30.3551 12.0651 30.435C11.9635 30.5149 11.9451 30.8417 11.9423 31.1488C11.9051 32.4054 11.9726 33.6629 12.1441 34.9084C12.6931 38.661 14.3091 43.077 16.0859 47.8098C16.1478 47.9769 16.2224 48.1391 16.3089 48.295Z" fill="#F1F0EE"/>
<path d="M17.1952 27.9977H16.968C16.9494 27.9981 16.9317 28.0056 16.9185 28.0187C16.9054 28.0317 16.8978 28.0494 16.8975 28.0679C16.8978 28.0863 16.9054 28.104 16.9185 28.117C16.9317 28.1301 16.9494 28.1376 16.968 28.138H17.1952C17.214 28.138 17.2319 28.1306 17.2451 28.1174C17.2584 28.1043 17.2658 28.0865 17.2658 28.0679C17.2658 28.0493 17.2584 28.0314 17.2451 28.0183C17.2319 28.0051 17.214 27.9977 17.1952 27.9977Z" fill="white"/>
<path d="M30.1807 49.0762L21.1906 52.4249C20.7788 52.5702 20.3259 52.5473 19.9311 52.3612C19.5363 52.1751 19.232 51.8409 19.0849 51.4321L12.0029 31.6957C11.8563 31.2866 11.8791 30.8364 12.0665 30.444C12.2539 30.0517 12.5904 29.7493 13.0021 29.6034L20.8617 26.8184C21.2735 26.6731 21.7264 26.696 22.1212 26.8822C22.516 27.0683 22.8203 27.4024 22.9674 27.8113L31.1785 46.9839C31.3252 47.3928 31.3025 47.8429 31.1154 48.2352C30.9283 48.6276 30.5921 48.93 30.1807 49.0762Z" fill="#D8DBF5"/>
<path d="M30.3233 49.4646L22.1179 52.6114L21.6056 52.8078C21.5167 52.84 21.4405 52.8723 21.3431 52.9073L21.1681 52.9606C21.1088 52.976 21.0509 52.9859 20.9917 52.9971C20.5126 53.0806 20.0191 53.0005 19.5916 52.7699C19.1595 52.5415 18.8203 52.1713 18.6319 51.7224C18.5797 51.6004 18.5571 51.526 18.5247 51.4419L18.4329 51.1839L18.2495 50.6692C17.7611 49.294 17.2789 47.916 16.8029 46.5351L13.9365 38.2796L12.504 34.1498L11.7913 32.0912L11.701 31.8331C11.6659 31.7311 11.6385 31.6265 11.6191 31.5204C11.5392 31.0899 11.6079 30.6452 11.8141 30.2584C12.0203 29.8715 12.3519 29.5651 12.7552 29.3889L12.9062 29.3286L13.0361 29.2837L13.2957 29.1954L14.3316 28.8336L16.4119 28.1226L20.5697 26.7034C20.6586 26.674 20.7376 26.6431 20.835 26.6137L20.9761 26.573L21.1286 26.545C21.3322 26.5171 21.5391 26.5223 21.7411 26.5604C22.1456 26.6383 22.512 26.8492 22.7812 27.1592C22.9136 27.3127 23.0156 27.4897 23.0818 27.6808C23.1453 27.8617 23.2229 28.0202 23.2935 28.1899L23.7338 29.1911L25.5093 33.1906L29.0376 41.1965L30.8031 45.2001L31.2435 46.2L31.4636 46.7006L31.5201 46.8254C31.5384 46.8675 31.5568 46.9334 31.5737 46.9867C31.6051 47.0955 31.6278 47.2067 31.6415 47.319C31.6947 47.7718 31.5937 48.2292 31.3545 48.6182C31.1152 49.0072 30.7517 49.3052 30.3219 49.4646H30.3233ZM30.041 48.6863C30.307 48.5976 30.5352 48.4225 30.6888 48.1892C30.8424 47.956 30.9125 47.6781 30.8878 47.4004C30.8854 47.3654 30.8802 47.3307 30.8723 47.2966C30.8678 47.2629 30.8608 47.2296 30.8511 47.197C30.8398 47.1648 30.8384 47.1409 30.8215 47.0989L30.7693 46.9727L30.559 46.4678L30.1356 45.4596L28.4561 41.4223L25.1014 33.3533L23.4318 29.3089L23.0084 28.2993C22.9407 28.1338 22.8673 27.9585 22.7911 27.8028C22.719 27.6543 22.6237 27.518 22.5088 27.399C22.2886 27.1588 21.9941 26.9985 21.6719 26.9432C21.5126 26.9173 21.35 26.9173 21.1907 26.9432L21.0735 26.9671L20.9578 27.0035C20.8802 27.0274 20.7884 27.0638 20.7037 27.0947L16.5898 28.6078L14.5278 29.365L13.4961 29.7437L13.2379 29.8376L13.1094 29.8853L13.0064 29.9302C12.8707 29.9933 12.7462 30.0781 12.6381 30.1812C12.4241 30.3889 12.2852 30.661 12.2429 30.9553C12.2244 31.1002 12.2306 31.2471 12.2612 31.39C12.2761 31.4624 12.2964 31.5337 12.3219 31.6032L12.4165 31.8598L13.1772 33.9142L14.6986 38.0104L17.74 46.2084C18.249 47.5743 18.7514 48.9425 19.2473 50.313L19.4321 50.8277L19.5253 51.0843C19.5563 51.1684 19.5902 51.2666 19.6114 51.3115C19.7089 51.5407 19.8795 51.7319 20.0969 51.8556C20.3166 51.9801 20.5723 52.027 20.8223 51.9888C20.8533 51.9888 20.8844 51.979 20.914 51.972L21.0029 51.9467C21.0777 51.9229 21.1723 51.8864 21.2556 51.857L21.7721 51.6705L30.041 48.6863Z" fill="#24286B"/>
<path d="M17.0469 29.7423C17.5578 29.5656 18.064 29.3725 18.5654 29.1631C18.6388 29.1323 18.5852 29.0117 18.5104 29.0355C18.0437 29.1831 17.5909 29.3708 17.1569 29.5964C17.1424 29.6052 17.1316 29.6189 17.1264 29.635C17.1212 29.6511 17.122 29.6685 17.1287 29.684C17.1354 29.6995 17.1475 29.7121 17.1628 29.7195C17.1781 29.7268 17.1956 29.7285 17.212 29.7241C17.6709 29.5777 18.1193 29.4006 18.5542 29.194C18.636 29.1547 18.564 29.0341 18.4822 29.072C18.0584 29.2738 17.6213 29.4467 17.1739 29.5894L17.2289 29.717C17.6521 29.4985 18.0936 29.3169 18.5485 29.1743L18.4935 29.0467C18.007 29.2515 17.514 29.4384 17.0144 29.6077C16.9283 29.6371 16.965 29.7717 17.0511 29.7479L17.0469 29.7423Z" fill="#24286B"/>
<path d="M17.1627 29.9007C17.6316 29.7756 18.0795 29.5828 18.4921 29.3286C18.5054 29.3208 18.5157 29.3089 18.5215 29.2947C18.5273 29.2805 18.5283 29.2648 18.5243 29.2501C18.5203 29.2353 18.5115 29.2222 18.4993 29.2128C18.4872 29.2035 18.4722 29.1983 18.4568 29.1981C17.9652 29.2252 17.4978 29.4193 17.133 29.7479C17.0695 29.804 17.15 29.8881 17.2191 29.8572L18.502 29.2865C18.5853 29.2486 18.5133 29.128 18.43 29.1659L17.1542 29.7366L17.2403 29.846C17.5782 29.5435 18.0098 29.3644 18.4639 29.3384L18.4244 29.2066C18.0228 29.4562 17.5862 29.6452 17.1288 29.7675C17.1101 29.7723 17.0941 29.7844 17.0843 29.8009C17.0745 29.8175 17.0717 29.8372 17.0766 29.8558C17.0814 29.8744 17.0935 29.8904 17.1102 29.9001C17.1269 29.9098 17.1468 29.9126 17.1655 29.9077L17.1627 29.9007Z" fill="#24286B"/>
<path d="M12.7453 42.1782C12.3038 42.6575 11.9245 43.1898 11.6162 43.7628C11.5973 43.7923 11.5861 43.8261 11.5837 43.861C11.5879 43.8947 11.6025 43.9263 11.6255 43.9514C11.6485 43.9765 11.6788 43.9939 11.7122 44.0012C11.9944 44.0881 12.2442 43.7824 12.3698 43.5118C12.549 43.1263 12.6862 42.723 12.7791 42.3086" fill="#F5FFB6"/>
<path d="M29.4328 34.5635C29.4802 34.6872 29.4938 34.8212 29.4723 34.9519C29.5414 34.8117 29.3311 34.5831 29.4723 34.4976C29.5 34.484 29.5303 34.4768 29.5612 34.4765L31.5864 34.3097C31.6075 34.3054 31.6292 34.306 31.65 34.3113C31.6708 34.3166 31.6901 34.3266 31.7064 34.3405C31.7158 34.3568 31.7214 34.3749 31.7229 34.3935C31.7243 34.4122 31.7216 34.431 31.7149 34.4485C31.6669 34.6757 31.602 34.9281 31.4015 35.0459C31.2635 35.1108 31.1104 35.1375 30.9584 35.123L29.6275 35.116" fill="#F5FFB6"/>
<path d="M9.19444 34.025L8.64685 33.8147C8.5283 33.7684 8.38293 33.7249 8.28132 33.802C8.2445 33.8403 8.21598 33.8857 8.19753 33.9354C8.17908 33.9851 8.17109 34.038 8.17406 34.0909L8.09644 35.1875C8.34019 34.9356 8.63378 34.7365 8.95875 34.6028C9.06281 34.5743 9.15518 34.514 9.22267 34.4303C9.2517 34.3595 9.25902 34.2818 9.2437 34.207C9.22838 34.1321 9.19111 34.0634 9.13658 34.0096" fill="#F5FFB6"/>
<path d="M9.01935 29.2585L8.19514 28.8658C8.06733 28.8225 7.95663 28.74 7.87901 28.6302C7.77598 28.4381 7.89453 28.2095 8.01026 28.0286C8.02271 28.0037 8.04449 27.9845 8.07095 27.9753C8.08558 27.9758 8.09999 27.9791 8.11331 27.9851C8.12664 27.9911 8.13863 27.9997 8.14857 28.0104L8.83447 28.5994C8.94468 28.6794 9.03378 28.7848 9.09415 28.9065C9.12234 28.9677 9.12744 29.0369 9.10852 29.1015C9.08961 29.1661 9.04794 29.2218 8.99113 29.2585" fill="#F5FFB6"/>
<path d="M25.4104 28.232L26.8217 27.2041C27.0306 27.0512 27.2606 26.8913 27.5189 26.8941C27.9423 26.8941 28.2161 27.305 28.4193 27.6654C28.4351 27.6862 28.4464 27.7101 28.4524 27.7354C28.4585 27.7607 28.4592 27.787 28.4546 27.8127C28.4414 27.8375 28.423 27.8593 28.4006 27.8765C28.3782 27.8936 28.3523 27.9058 28.3248 27.9122L26.6975 28.525C26.4613 28.637 26.2011 28.69 25.9396 28.6793C25.6814 28.6471 25.4273 28.4423 25.4372 28.1843" fill="#F5FFB6"/>
<path d="M19.4279 25.2829L19.4956 23.9927C19.4852 23.7996 19.5377 23.6084 19.6452 23.4472C19.8456 23.2088 20.2097 23.2411 20.5245 23.2944C20.5441 23.295 20.5635 23.2996 20.5812 23.3081C20.5989 23.3165 20.6147 23.3286 20.6275 23.3434C20.6365 23.3623 20.6412 23.3829 20.6412 23.4037C20.6412 23.4246 20.6365 23.4452 20.6275 23.464L20.214 24.6841C20.1665 24.872 20.0741 25.0456 19.9444 25.1903C19.8771 25.2604 19.7869 25.3043 19.6899 25.3143C19.5929 25.3244 19.4956 25.2998 19.4152 25.245" fill="#F5FFB6"/>
</g>
<g opacity="0.13">
<path d="M31.8494 22.0215C31.961 23.418 32.0727 24.8145 32.1827 26.2313C32.5373 24.8724 32.8919 23.5136 33.2668 22.1563C33.2969 22.0364 33.3286 21.8961 33.4179 21.8013C33.5526 21.6489 33.7586 21.6248 33.9443 21.5989C36.4196 21.2683 38.9543 20.4529 40.5946 18.5857C42.235 16.7186 42.6104 13.5862 40.8763 11.8138C39.9704 10.9041 38.7195 10.4766 37.4855 10.0913C35.7951 9.54667 34.0845 9.00042 32.3323 8.71608C29.6371 8.23314 26.66 8.46199 24.4109 10.0351C22.1618 11.6082 20.9049 14.7918 22.134 17.258C22.9404 18.8942 24.6118 19.927 26.3192 20.5138C28.0265 21.1006 29.8445 21.329 31.5989 21.838C31.7984 21.8949 31.9733 22.2559 31.7706 22.2395" fill="black"/>
<path d="M31.7463 22.0335C31.8579 23.43 31.9696 24.8265 32.0796 26.2433C32.0917 26.3463 32.2539 26.3594 32.2823 26.2597C32.5784 25.1206 32.8963 23.9628 33.1924 22.8237C33.2542 22.5634 33.3177 22.2829 33.3998 22.0242C33.5022 21.7673 33.7301 21.7244 33.9782 21.6833C34.4324 21.6179 34.8866 21.5526 35.344 21.4467C37.13 21.0604 38.9 20.3668 40.2479 19.0882C41.4408 17.9603 42.1597 16.386 42.1301 14.7309C42.1315 13.9556 41.9489 13.1859 41.5553 12.5012C41.1074 11.7305 40.4185 11.1647 39.6355 10.7546C38.7341 10.2941 37.7571 10.0112 36.8021 9.70959C35.7084 9.35601 34.6131 9.02269 33.4893 8.7891C31.5848 8.37002 29.5795 8.18766 27.65 8.58274C25.8875 8.9301 24.2091 9.75354 23.0541 11.1702C22.0135 12.4328 21.4081 14.1183 21.6031 15.746C21.6981 16.5902 22.0211 17.3917 22.5379 18.0659C23.0702 18.8027 23.7996 19.3717 24.5793 19.8223C26.4331 20.8699 28.5519 21.1634 30.5934 21.6548C30.8537 21.7166 31.1342 21.78 31.3928 21.8621C31.4926 21.8906 31.6142 21.9004 31.6904 21.9678C31.709 21.9897 31.7463 22.0335 31.7649 22.0554C31.7836 22.0773 31.7819 22.0976 31.7803 22.1179C31.777 22.1584 31.7803 22.1179 31.8006 22.1195C31.6789 22.1097 31.6625 22.3124 31.7842 22.3222C31.948 22.3151 32.017 22.2186 31.9879 22.0734C31.9386 21.9266 31.8065 21.7935 31.6678 21.7415C31.4092 21.6594 31.1287 21.596 30.8684 21.5341C30.6082 21.4723 30.3276 21.4088 30.0674 21.347C28.9858 21.0964 27.8806 20.8847 26.8056 20.5531C25.073 20.0255 23.3124 19.0875 22.3827 17.4617C21.5632 15.9876 21.6651 14.2206 22.3571 12.7258C22.7048 11.9581 23.2097 11.2644 23.8264 10.702C24.4886 10.0822 25.261 9.61405 26.103 9.29437C27.8527 8.59911 29.8201 8.49275 31.6802 8.7042C32.7716 8.83316 33.8329 9.08211 34.891 9.3716C35.949 9.6611 37.0038 9.99114 38.0553 10.3617C38.9698 10.66 39.8794 11.0192 40.6225 11.6709C41.2319 12.2098 41.6441 12.9165 41.8268 13.6862C42.1922 15.2256 41.7676 16.9461 40.8284 18.2169C39.7309 19.679 38.007 20.56 36.2737 21.0525C35.8348 21.1803 35.3774 21.2862 34.9216 21.3718C34.6937 21.4146 34.4658 21.4574 34.2598 21.4816C34.0538 21.5057 33.8275 21.5283 33.6166 21.6133C33.426 21.6999 33.3115 21.8539 33.2343 22.0517C33.1506 22.3306 33.0871 22.6111 33.0034 22.89C32.8562 23.4494 32.7073 24.0291 32.5601 24.5886C32.4146 25.1277 32.2674 25.6872 32.1218 26.2263C32.1826 26.2312 32.2434 26.2361 32.3245 26.2427C32.2129 24.8462 32.1012 23.4497 31.9912 22.0329C31.9435 21.8658 31.7358 21.9103 31.7463 22.0335Z" fill="black"/>
</g>
<path d="M30.7872 20.7726C30.8988 22.1691 31.0105 23.5656 31.1205 24.9824C31.4751 23.6235 31.8297 22.2647 32.2046 20.9075C32.2347 20.7875 32.2664 20.6472 32.3557 20.5524C32.4904 20.4 32.6964 20.3759 32.8821 20.3501C35.3573 20.0195 37.8921 19.204 39.5324 17.3368C41.1727 15.4697 41.5482 12.3374 39.8141 10.565C38.9082 9.65522 37.6572 9.22772 36.4233 8.8424C34.7329 8.29779 33.0223 7.75154 31.2701 7.46719C28.5513 7.02317 25.5962 7.23338 23.3471 8.8065C21.098 10.3796 19.8629 13.5446 21.0718 16.0091C21.8782 17.6453 23.5496 18.6781 25.257 19.2649C26.9643 19.8517 28.7823 20.0801 30.5367 20.5891C30.7362 20.646 30.9111 21.007 30.7083 20.9907" fill="white"/>
<path d="M30.6826 20.8049C30.7942 22.2015 30.9059 23.598 31.0159 25.0147C31.028 25.1177 31.1902 25.1308 31.2186 25.0311C31.5147 23.892 31.8326 22.7342 32.1287 21.5951C32.1905 21.3348 32.254 21.0543 32.3361 20.7957C32.4384 20.5387 32.6663 20.4959 32.9145 20.4547C33.3687 20.3894 33.8229 20.324 34.2803 20.2181C36.0663 19.8319 37.8362 19.1382 39.1842 17.8596C40.3771 16.7317 41.096 15.1574 41.0664 13.5023C41.0678 12.7271 40.8851 11.9573 40.4915 11.2726C40.0437 10.5019 39.3548 9.93614 38.5718 9.52603C37.6704 9.06555 36.6934 8.7826 35.7384 8.48102C34.6447 8.12743 33.5494 7.79411 32.4256 7.56052C30.521 7.14145 28.536 6.96072 26.5862 7.35416C24.8238 7.70152 23.1454 8.52496 21.9903 9.94159C20.9498 11.2042 20.3443 12.8897 20.5394 14.5174C20.6344 15.3616 20.9574 16.1631 21.4742 16.8374C22.0081 17.5538 22.7358 18.1431 23.5173 18.5735C25.3711 19.621 27.4898 19.9146 29.5313 20.4059C29.7916 20.4677 30.0721 20.5312 30.3308 20.6133C30.4305 20.6418 30.5521 20.6516 30.6283 20.7189C30.6469 20.7409 30.6842 20.7847 30.7028 20.8066C30.7215 20.8285 30.7198 20.8488 30.7182 20.869C30.7149 20.9096 30.7182 20.869 30.7385 20.8707C30.6168 20.8609 30.6005 21.0636 30.7221 21.0734C30.8859 21.0662 30.9549 20.9698 30.9258 20.8246C30.8765 20.6778 30.7444 20.5447 30.6058 20.4927C30.3471 20.4106 30.0666 20.3471 29.8063 20.2853C29.5461 20.2235 29.2655 20.16 29.0053 20.0982C27.9237 19.8476 26.8186 19.6359 25.7435 19.3042C24.011 18.7766 22.2503 17.8386 21.3206 16.2128C20.5011 14.7387 20.603 12.9718 21.295 11.477C21.6427 10.7093 22.1476 10.0155 22.7643 9.45319C23.4265 8.83333 24.1989 8.3652 25.0409 8.04552C26.772 7.32835 28.7191 7.22036 30.5776 7.45207C31.669 7.58103 32.7303 7.82998 33.7883 8.11948C34.8464 8.40898 35.9012 8.73902 36.9527 9.1096C37.8672 9.40791 38.7768 9.76703 39.5199 10.4188C40.1293 10.9577 40.5415 11.6643 40.7242 12.434C41.0896 13.9735 40.665 15.6939 39.7257 16.9648C38.6283 18.4269 36.9044 19.3078 35.171 19.8004C34.7322 19.9282 34.2748 20.0341 33.819 20.1197C33.5911 20.1625 33.3631 20.2053 33.1572 20.2294C32.9512 20.2536 32.7249 20.2762 32.514 20.3611C32.3234 20.4478 32.2089 20.6018 32.1317 20.7996C32.048 21.0785 31.9845 21.359 31.9008 21.6379C31.7536 22.1973 31.6047 22.777 31.4575 23.3365C31.3119 23.8756 31.1647 24.435 31.0192 24.9742C31.08 24.9791 31.1408 24.984 31.2219 24.9906C31.1102 23.5941 30.9986 22.1976 30.8886 20.7808C30.8797 20.6372 30.6738 20.6614 30.6826 20.8049Z" fill="black"/>
<path d="M27.7801 13.7964C27.8102 13.6764 27.6748 13.5839 27.5669 13.6568C27.4168 13.7467 27.5456 13.9203 27.6673 13.9301C27.767 13.9586 27.87 13.9465 27.9713 13.9547C28.1132 13.9661 28.2349 13.976 28.3768 13.9874C28.6201 14.0071 28.865 14.0064 29.1082 14.0261C30.1032 14.086 31.0982 14.146 32.0931 14.206C32.2148 14.2158 32.2311 14.0131 32.1095 14.0032C31.3578 13.9629 30.6264 13.9243 29.8763 13.8637C29.5114 13.8342 29.1449 13.825 28.78 13.7955C28.5975 13.7808 28.4151 13.7661 28.231 13.7716C28.1296 13.7634 28.0485 13.7569 27.9472 13.7487C27.9066 13.7454 27.8458 13.7405 27.8053 13.7372C27.785 13.7356 27.7647 13.7339 27.7647 13.7339C27.7055 13.7088 27.682 13.7477 27.6552 13.8271C27.6365 13.8052 27.6179 13.7833 27.5976 13.7817C27.5993 13.7614 27.6025 13.7208 27.5839 13.6989C27.5839 13.6989 27.5839 13.6989 27.5823 13.7192C27.5522 13.8392 27.7297 13.9148 27.7801 13.7964Z" fill="black"/>
<path d="M28.428 14.8689C29.8415 14.7994 31.2403 14.9123 32.6227 15.228C32.7427 15.2581 32.8198 15.0603 32.6998 15.0302C31.2972 14.7129 29.8798 14.578 28.4444 14.6661C28.3211 14.6766 28.3047 14.8793 28.428 14.8689Z" fill="black"/>
<g opacity="0.13">
<path d="M35.1576 27.0428C34.9934 29.5801 34.848 32.1393 34.6838 34.6766C35.7275 32.6184 36.7694 30.5805 37.7928 28.5207C41.931 30.5893 46.4323 31.9526 51.016 32.5473C51.8236 32.6533 52.675 32.7221 53.4667 32.5208C54.7376 32.1949 55.7416 31.1334 56.1877 29.9044C56.6338 28.6753 56.5408 27.3007 56.1322 26.0435C55.6047 24.4909 54.5743 23.1018 53.2223 22.1561C52.5067 21.6698 51.7203 21.3002 50.9543 20.9323C48.8288 19.9648 46.678 19.0566 44.5022 18.2075C42.0693 17.2561 39.4677 16.3726 36.8878 16.7356C34.308 17.0985 31.756 19.1369 31.7086 21.7448C31.6737 23.9456 33.3558 25.8567 35.3158 26.8515" fill="black"/>
<path d="M35.0561 27.0346C34.9362 29.0246 34.8179 30.9942 34.698 32.9841C34.6725 33.5534 34.6266 34.121 34.6011 34.6903C34.5912 34.8119 34.7534 34.825 34.8021 34.7269C35.6054 33.1186 36.4272 31.5323 37.2305 29.924C37.4506 29.4725 37.691 29.0226 37.9111 28.5711C37.8689 28.5881 37.8267 28.6051 37.7845 28.6221C39.7649 29.6186 41.841 30.4392 43.9506 31.0993C46.0601 31.7594 48.2233 32.2605 50.4231 32.5606C51.4724 32.7066 52.5994 32.8996 53.6458 32.5761C54.4828 32.3172 55.179 31.7817 55.684 31.0879C56.8975 29.4516 56.7906 27.2393 56.0378 25.4441C55.6792 24.5786 55.1502 23.8013 54.5117 23.1172C53.8157 22.3877 53.0036 21.8324 52.1224 21.3735C51.1043 20.8424 50.0577 20.411 49.0128 19.9593C47.9492 19.4857 46.8621 19.0511 45.7952 18.618C43.7004 17.7755 41.5683 16.8891 39.3028 16.645C38.2722 16.5209 37.2098 16.5371 36.2089 16.8032C35.3751 17.0215 34.5907 17.3866 33.8978 17.8816C32.5339 18.8528 31.5547 20.3653 31.6402 22.0862C31.724 23.8273 32.8663 25.3478 34.2352 26.3358C34.5821 26.5882 34.9322 26.8002 35.3246 26.9951C35.4429 27.0455 35.5185 26.8679 35.4018 26.7973C33.9135 26.0241 32.5472 24.7507 32.0465 23.1188C31.8046 22.3239 31.7907 21.4862 32.037 20.7103C32.2833 19.9344 32.7274 19.2357 33.3036 18.6702C33.9017 18.0859 34.6116 17.6332 35.3725 17.3069C36.238 16.9483 37.148 16.7974 38.0668 16.79C40.2726 16.7641 42.3958 17.5069 44.4128 18.3023C46.5093 19.1246 48.5821 19.9857 50.6282 20.9264C51.5921 21.3715 52.5779 21.798 53.424 22.4376C54.155 22.9864 54.7732 23.6688 55.2616 24.4428C56.2927 26.0768 56.7914 28.2392 56.0513 30.077C55.7222 30.8666 55.1751 31.5773 54.4449 32.0285C53.6052 32.5728 52.6207 32.6361 51.6476 32.5575C50.5749 32.4505 49.507 32.2826 48.4627 32.0758C47.3981 31.8674 46.357 31.6201 45.3193 31.3322C43.2437 30.7565 41.2218 30.0219 39.2535 29.1284C38.7817 28.9066 38.31 28.6849 37.8382 28.4632C37.779 28.438 37.7352 28.4752 37.7116 28.5142C36.9084 30.1224 36.0865 31.7088 35.2833 33.3171C35.0632 33.7686 34.8228 34.2185 34.6027 34.67C34.6635 34.6749 34.743 34.7017 34.8038 34.7066C34.9237 32.7167 35.042 30.7471 35.1619 28.7571C35.1874 28.1879 35.2333 27.6202 35.2588 27.051C35.2687 26.9294 35.066 26.913 35.0561 27.0346Z" fill="black"/>
</g>
<path d="M35.2511 25.8873C35.087 28.4246 34.9415 30.9838 34.7774 33.521C35.821 31.4629 36.8629 29.425 37.8863 27.3652C42.0245 29.4338 46.5258 30.7971 51.1095 31.3918C51.9171 31.4978 52.7685 31.5666 53.5602 31.3653C54.8311 31.0394 55.8351 29.9779 56.2812 28.7488C56.7273 27.5198 56.6343 26.1452 56.2258 24.8879C55.6982 23.3354 54.6678 21.9463 53.3158 21.0006C52.6002 20.5143 51.8138 20.1447 51.0478 19.7768C48.9223 18.8093 46.7716 17.9011 44.5957 17.052C42.1628 16.1005 39.5612 15.2171 36.9813 15.58C34.4015 15.943 31.8495 17.9814 31.8022 20.5893C31.7672 22.7901 33.4493 24.7011 35.4093 25.696" fill="white"/>
<path d="M35.1496 25.8791C35.0297 27.869 34.9115 29.8387 34.7915 31.8286C34.766 32.3979 34.7201 32.9655 34.6946 33.5348C34.6847 33.6564 34.8469 33.6695 34.8956 33.5714C35.6989 31.9631 36.5207 30.3768 37.324 28.7685C37.5441 28.317 37.7845 27.8671 38.0046 27.4156C37.9624 27.4326 37.9202 27.4495 37.878 27.4665C39.8584 28.4631 41.9345 29.2837 44.0441 29.9438C46.1536 30.6038 48.3168 31.105 50.5166 31.4051C51.5659 31.5511 52.6929 31.7441 53.7393 31.4205C54.5763 31.1617 55.2725 30.6262 55.7775 29.9324C56.991 28.2961 56.8841 26.0838 56.1313 24.2886C55.7727 23.4231 55.2437 22.6458 54.6052 21.9617C53.9092 21.2321 53.0971 20.6768 52.2159 20.218C51.1978 19.6869 50.1512 19.2555 49.1063 18.8038C48.0427 18.3302 46.9556 17.8955 45.8887 17.4625C43.7939 16.62 41.6618 15.7336 39.3963 15.4894C38.3657 15.3654 37.3033 15.3816 36.3025 15.6476C35.4686 15.866 34.6842 16.2311 33.9913 16.726C32.6274 17.6973 31.6482 19.2098 31.7337 20.9306C31.8175 22.6718 32.9598 24.1923 34.3287 25.1803C34.6756 25.4327 35.0257 25.6446 35.4181 25.8396C35.5364 25.8899 35.612 25.7124 35.4953 25.6418C34.007 24.8686 32.6407 23.5952 32.14 21.9633C31.8981 21.1684 31.8842 20.3307 32.1305 19.5548C32.3768 18.7789 32.8209 18.0802 33.3971 17.5146C33.9952 16.9304 34.7051 16.4776 35.466 16.1514C36.3315 15.7928 37.2415 15.6419 38.1603 15.6345C40.3661 15.6086 42.4893 16.3514 44.5063 17.1468C46.6028 17.9691 48.6757 18.8302 50.7217 19.7708C51.6856 20.216 52.6714 20.6425 53.5175 21.2821C54.2485 21.8309 54.8667 22.5133 55.3551 23.2873C56.3862 24.9213 56.8849 27.0836 56.1448 28.9215C55.8157 29.7111 55.2686 30.4218 54.5384 30.873C53.6987 31.4173 52.7142 31.4806 51.7411 31.402C50.6684 31.2949 49.6005 31.1271 48.5562 30.9203C47.4916 30.7119 46.4505 30.4646 45.4128 30.1767C43.3372 29.601 41.3153 28.8664 39.347 27.9729C38.8753 27.7511 38.4035 27.5294 37.9317 27.3076C37.8725 27.2825 37.8287 27.3197 37.8051 27.3586C37.0019 28.9669 36.18 30.5533 35.3768 32.1616C35.1567 32.6131 34.9163 33.063 34.6962 33.5145C34.757 33.5194 34.8365 33.5462 34.8973 33.5511C35.0172 31.5612 35.1355 29.5915 35.2554 27.6016C35.2809 27.0323 35.3268 26.4647 35.3524 25.8955C35.3622 25.7738 35.1595 25.7575 35.1496 25.8791Z" fill="black"/>
<path d="M39.1262 21.6093C41.3498 22.6255 43.6238 23.5233 45.9449 24.3433C46.2627 24.4506 46.5805 24.5579 46.8983 24.6652C47.1755 24.7692 47.4528 24.8732 47.6594 25.0939C47.7542 25.1832 47.9076 25.0527 47.8128 24.9635C47.4352 24.5861 46.8741 24.4592 46.3788 24.2763C45.7837 24.065 45.2089 23.8554 44.6138 23.6441C43.4456 23.2029 42.2791 22.7414 41.1344 22.2612C40.4834 21.9842 39.8324 21.7072 39.2034 21.4115C39.0631 21.3798 39.0078 21.559 39.1262 21.6093Z" fill="black"/>
<path d="M40.7724 23.9663C41.5839 24.2767 42.3971 24.5669 43.2086 24.8772C43.6042 25.0316 44.0201 25.1876 44.4173 25.3217C44.813 25.4761 45.2305 25.6119 45.6026 25.8052C45.7193 25.8758 45.8354 25.7015 45.7186 25.6309C45.3466 25.4376 44.9696 25.3051 44.574 25.1508C44.1581 24.9947 43.7422 24.8387 43.3263 24.6827C42.4945 24.3707 41.6628 24.0587 40.8512 23.7483C40.7312 23.7182 40.6541 23.916 40.7724 23.9663Z" fill="black"/>
<rect x="23" y="12.2252" width="9" height="9" rx="4.5" transform="rotate(-28 23 12.2252)" fill="white"/>
<path d="M27.0572 13.4657C26.9171 13.2022 26.9049 12.8847 27.0232 12.5828C27.1415 12.281 27.3806 12.0196 27.6879 11.8562L28.019 11.6801C28.3264 11.5167 28.6768 11.4646 28.9932 11.5353C29.3095 11.6061 29.566 11.7938 29.7061 12.0573C29.8325 12.2657 29.8879 12.5097 29.8637 12.7523C29.8395 12.995 29.7371 13.2232 29.572 13.4027C29.4195 13.6059 29.3412 13.8793 29.3487 14.1817C29.3563 14.4841 29.4494 14.7991 29.614 15.0792M30.3182 16.4036L30.32 16.4069" stroke="#3643BA" stroke-linecap="round" stroke-linejoin="round"/>
<defs>
<clipPath id="clip0_2188_4366">
<rect width="42.9114" height="42.9114" fill="white" transform="translate(0 17.4683)"/>
</clipPath>
</defs>
</svg>
