<svg xmlns="http://www.w3.org/2000/svg" width="1405.358" height="215.056" viewBox="0 0 1405.358 215.056">
    <defs>
        <style>
            .prefix__cls-2{fill:#424453}
        </style>
    </defs>
    <g id="prefix__Asset_1logodec" data-name="Asset 1logodec" opacity="0.05" transform="translate(0 -18)">
        <g id="prefix__Layer_1" data-name="Layer 1" transform="translate(0 18)">
            <path id="prefix__Path_85" d="M77 1.79h118v45.376l-64.923.048v33.7l56.209-.048v44.317l-56.209.1v37.36H195v45.208H77z" class="prefix__cls-2" data-name="Path 85" transform="translate(108.356 2.519)"/>
            <path id="prefix__Path_86" d="M364.4 4.213s-68.293 116.2-74.937 126.668c-7.8 12.325-24.746 31.823-50.383 31.486-41.741-.626-57.412-29.464-57.412-55.366a55.366 55.366 0 0 1 54.138-55.366c34.664-.7 60.445 32.5 60.445 32.5l27.105-43.667S292.688-1.179 236.311.1c-84.9 1.878-109.6 73.011-109.6 105.918 0 69.4 53.44 104.064 97.059 108.325C286.6 220.454 321 179.41 321 179.41s-.433 0 1.709-.169c12.686-.144 46.122.169 46.122.169v30.861h51.057V4.213zm5.464 132.036h-27.347l27.346-46.676z" class="prefix__cls-2" data-name="Path 86" transform="translate(178.308 .096)"/>
            <path id="prefix__Path_87" d="M294.311 208.01V51.036H253.1V1.76h135.406v49.276h-41.139V208.01z" class="prefix__cls-2" data-name="Path 87" transform="translate(356.167 2.477)"/>
            <path id="prefix__Path_88" d="M421.523 129.1h-54.6v78.885H313.92V1.78h53.007v78.307h54.6V1.78h53.031v206.2h-53.035z" class="prefix__cls-2" data-name="Path 88" transform="translate(441.754 2.505)"/>
            <path id="prefix__Path_89" d="M387.38 207.954V1.8h52.742v160.61h61.89v45.545z" class="prefix__cls-2" data-name="Path 89" transform="translate(545.128 2.533)"/>
            <path id="prefix__Path_90" d="M529.192 163.546c30.042 0 54.451-23.88 54.451-57.773a54.734 54.734 0 1 0-109.468 0c.012 32.666 26.179 57.773 55.017 57.773m-75.9-133.215C473.9 10.207 499.679 0 529.48 0a106.327 106.327 0 0 1 74.745 30.62 104.4 104.4 0 0 1 32.353 75.514 106.88 106.88 0 0 1-107.386 108.782c-30.909 0-57.364-11.049-77.994-32.714-19.667-20.654-29.657-46.291-29.657-76.911a103.367 103.367 0 0 1 31.751-74.961" class="prefix__cls-2" data-name="Path 90" transform="translate(593.198)"/>
            <path id="prefix__Path_91" d="M508.88 207.968V1.79h47.808l79.559 114.51V1.79h53.007v206.178h-46.6L561.839 93.12v114.848z" class="prefix__cls-2" data-name="Path 91" transform="translate(716.105 2.519)"/>
            <path id="prefix__Path_92" d="M134.154 104.169c0-37.119-21.063-58.038-60.036-58.038H52.959v116.557h21.424c40.586 0 59.771-17.934 59.771-58.519M0 207.968V1.79h74.118c34.447 0 58.519 4.333 81.1 24.578 20.678 18.56 31.655 45.52 31.655 79.438 0 31.294-10.664 57.1-31.294 76.55-23.133 21.424-43.571 25.516-74.07 25.516z" class="prefix__cls-2" data-name="Path 92" transform="translate(0 2.519)"/>
        </g>
    </g>
</svg>
