<svg width="22" height="23" viewBox="0 0 22 23" fill="none" xmlns="http://www.w3.org/2000/svg">
<path d="M11 2.1719C13.9371 2.1719 14.285 2.18308 15.4449 2.236C16.5174 2.28495 17.0998 2.46415 17.4875 2.61475C18.0009 2.8143 18.3674 3.0527 18.7523 3.43761C19.1372 3.82251 19.3756 4.18899 19.5751 4.70239C19.7257 5.09005 19.9049 5.67249 19.9539 6.74494C20.0068 7.90489 20.018 8.25276 20.018 11.1899C20.018 14.127 20.0068 14.4749 19.9539 15.6348C19.9049 16.7073 19.7257 17.2898 19.5751 17.6774C19.3756 18.1908 19.1372 18.5573 18.7523 18.9422C18.3674 19.3271 18.0009 19.5655 17.4875 19.765C17.0998 19.9157 16.5174 20.0949 15.4449 20.1438C14.2852 20.1967 13.9373 20.2079 11 20.2079C8.06266 20.2079 7.71479 20.1967 6.55506 20.1438C5.48257 20.0949 4.90013 19.9157 4.51251 19.765C3.99906 19.5655 3.63259 19.3271 3.24768 18.9422C2.86278 18.5573 2.62437 18.1908 2.42487 17.6774C2.27423 17.2898 2.09503 16.7073 2.04608 15.6349C1.99316 14.4749 1.98198 14.127 1.98198 11.1899C1.98198 8.25276 1.99316 7.90489 2.04608 6.74498C2.09503 5.67249 2.27423 5.09005 2.42487 4.70239C2.62437 4.18899 2.86278 3.82251 3.24768 3.43761C3.63259 3.0527 3.99906 2.8143 4.51251 2.61475C4.90013 2.46415 5.48257 2.28495 6.55501 2.236C7.71496 2.18308 8.06284 2.1719 11 2.1719ZM11 0.18988C8.01254 0.18988 7.63798 0.202543 6.46471 0.256076C5.29385 0.309521 4.49426 0.495445 3.79454 0.767388C3.07119 1.0485 2.45775 1.42463 1.84623 2.03615C1.2347 2.64767 0.858576 3.26112 0.577464 3.98446C0.305521 4.68419 0.119597 5.48377 0.0661518 6.65464C0.0126191 7.82786 0 8.20246 0 11.1899C0 14.1773 0.0126191 14.5519 0.0661518 15.7252C0.119597 16.896 0.305521 17.6956 0.577464 18.3953C0.858576 19.1186 1.2347 19.7321 1.84623 20.3437C2.45775 20.9552 3.07119 21.3313 3.79454 21.6124C4.49426 21.8844 5.29385 22.0703 6.46471 22.1237C7.63798 22.1773 8.01254 22.1899 11 22.1899C13.9874 22.1899 14.362 22.1773 15.5352 22.1237C16.7061 22.0703 17.5057 21.8844 18.2054 21.6124C18.9288 21.3313 19.5422 20.9552 20.1537 20.3437C20.7653 19.7321 21.1414 19.1187 21.4225 18.3953C21.6944 17.6956 21.8804 16.896 21.9338 15.7252C21.9873 14.5519 22 14.1773 22 11.1899C22 8.20246 21.9873 7.82786 21.9338 6.65464C21.8804 5.48377 21.6944 4.68419 21.4225 3.98446C21.1414 3.26112 20.7653 2.64767 20.1537 2.03615C19.5422 1.42463 18.9288 1.0485 18.2054 0.767388C17.5057 0.495445 16.7061 0.309521 15.5352 0.256076C14.362 0.202543 13.9874 0.18988 11 0.18988ZM11 5.54124C7.88032 5.54124 5.35131 8.07024 5.35131 11.1899C5.35131 14.3096 7.88032 16.8386 11 16.8386C14.1196 16.8386 16.6486 14.3096 16.6486 11.1899C16.6486 8.07024 14.1196 5.54124 11 5.54124ZM11 14.8566C8.97495 14.8566 7.33329 13.2149 7.33329 11.1899C7.33329 9.16487 8.97495 7.52321 11 7.52321C13.025 7.52321 14.6667 9.16487 14.6667 11.1899C14.6667 13.2149 13.025 14.8566 11 14.8566ZM18.1918 5.31807C18.1918 6.04709 17.6008 6.63809 16.8718 6.63809C16.1428 6.63809 15.5518 6.04709 15.5518 5.31807C15.5518 4.58904 16.1428 3.99809 16.8718 3.99809C17.6008 3.99809 18.1918 4.58904 18.1918 5.31807Z" fill="#0A0A08"/>
</svg>
